<svg aria-hidden="true" style="position: absolute; width: 0; height: 0; overflow: hidden;" version="1.1" xmlns="http://www.w3.org/2000/svg" xmlns:xlink="http://www.w3.org/1999/xlink">
<defs>
<symbol id="icon-heart" viewBox="0 0 32 32">
<path d="M28.017 5.275c-3.208-2.683-7.933-2.275-10.908 0.817l-1.108 1.167-1.167-1.167c-2.392-2.45-7.175-3.967-10.908-0.817-3.675 3.15-3.85 8.75-0.583 12.133l11.317 11.667c0.35 0.35 0.817 0.525 1.283 0.525 0.525 0 0.992-0.175 1.342-0.525l11.317-11.667c3.267-3.383 3.092-8.983-0.583-12.133zM27.258 16.125l-11.258 11.667-11.317-11.667c-2.217-2.333-2.683-6.708 0.467-9.392 3.208-2.742 6.942-0.758 8.342 0.642l2.508 2.567 2.45-2.567c1.342-1.4 5.133-3.383 8.342-0.642 3.15 2.683 2.683 7.058 0.467 9.392z"></path>
</symbol>
<symbol id="icon-inst" viewBox="0 0 32 32">
<path d="M16 0c-4.347 0-4.889 0.020-6.596 0.096-1.704 0.080-2.864 0.348-3.884 0.744-1.052 0.408-1.945 0.956-2.835 1.845s-1.439 1.781-1.845 2.835c-0.396 1.020-0.665 2.18-0.744 3.884-0.080 1.707-0.096 2.249-0.096 6.596s0.020 4.889 0.096 6.596c0.080 1.703 0.348 2.864 0.744 3.884 0.408 1.051 0.956 1.945 1.845 2.835 0.889 0.888 1.781 1.439 2.835 1.845 1.021 0.395 2.181 0.665 3.884 0.744 1.707 0.080 2.249 0.096 6.596 0.096s4.889-0.020 6.596-0.096c1.703-0.080 2.864-0.349 3.884-0.744 1.051-0.408 1.945-0.957 2.835-1.845 0.888-0.889 1.439-1.78 1.845-2.835 0.395-1.020 0.665-2.181 0.744-3.884 0.080-1.707 0.096-2.249 0.096-6.596s-0.020-4.889-0.096-6.596c-0.080-1.703-0.349-2.865-0.744-3.884-0.408-1.052-0.957-1.945-1.845-2.835-0.889-0.889-1.78-1.439-2.835-1.845-1.020-0.396-2.181-0.665-3.884-0.744-1.707-0.080-2.249-0.096-6.596-0.096zM16 2.88c4.271 0 4.78 0.021 6.467 0.095 1.56 0.073 2.407 0.332 2.969 0.553 0.749 0.289 1.28 0.636 1.843 1.195 0.559 0.56 0.905 1.092 1.195 1.841 0.219 0.563 0.48 1.409 0.551 2.969 0.076 1.688 0.093 2.195 0.093 6.467s-0.020 4.78-0.099 6.467c-0.081 1.56-0.341 2.407-0.561 2.969-0.299 0.749-0.639 1.28-1.199 1.843-0.559 0.559-1.099 0.905-1.84 1.195-0.56 0.219-1.42 0.48-2.98 0.551-1.699 0.076-2.199 0.093-6.479 0.093-4.281 0-4.781-0.020-6.479-0.099-1.561-0.081-2.421-0.341-2.981-0.561-0.759-0.299-1.28-0.639-1.839-1.199-0.561-0.559-0.92-1.099-1.2-1.84-0.22-0.56-0.479-1.42-0.56-2.98-0.060-1.68-0.081-2.199-0.081-6.459 0-4.261 0.021-4.781 0.081-6.481 0.081-1.56 0.34-2.419 0.56-2.979 0.28-0.76 0.639-1.28 1.2-1.841 0.559-0.559 1.080-0.919 1.839-1.197 0.56-0.221 1.401-0.481 2.961-0.561 1.7-0.060 2.2-0.080 6.479-0.080l0.060 0.040zM16 7.784c-4.54 0-8.216 3.68-8.216 8.216 0 4.54 3.68 8.216 8.216 8.216 4.54 0 8.216-3.68 8.216-8.216 0-4.54-3.68-8.216-8.216-8.216zM16 21.333c-2.947 0-5.333-2.387-5.333-5.333s2.387-5.333 5.333-5.333c2.947 0 5.333 2.387 5.333 5.333s-2.387 5.333-5.333 5.333zM26.461 7.46c0 1.060-0.861 1.92-1.92 1.92-1.060 0-1.92-0.861-1.92-1.92s0.861-1.919 1.92-1.919c1.057-0.001 1.92 0.86 1.92 1.919z"></path>
</symbol>
<symbol id="icon-phone" viewBox="0 0 32 32">
<path d="M24.591 32c-6.519-0.009-12.769-2.607-17.379-7.226s-7.203-10.881-7.212-17.414c0-1.952 0.774-3.824 2.151-5.204s3.246-2.156 5.194-2.156c0.413-0.003 0.824 0.034 1.23 0.112 0.392 0.058 0.777 0.155 1.15 0.288 0.262 0.092 0.496 0.251 0.678 0.462s0.306 0.465 0.36 0.738l2.188 9.6c0.059 0.261 0.052 0.532-0.021 0.789s-0.208 0.492-0.395 0.683c-0.208 0.224-0.224 0.24-2.188 1.264 1.573 3.457 4.332 6.234 7.776 7.824 1.038-1.984 1.054-2 1.277-2.208 0.191-0.187 0.425-0.323 0.682-0.395s0.527-0.080 0.787-0.021l9.581 2.192c0.264 0.061 0.508 0.189 0.709 0.371s0.353 0.412 0.441 0.669c0.135 0.38 0.236 0.771 0.303 1.168 0.064 0.402 0.096 0.809 0.096 1.216-0.029 1.944-0.825 3.797-2.213 5.155s-3.256 2.11-5.196 2.093z"></path>
</symbol>
<symbol id="icon-facebook" viewBox="0 0 32 32">
<path d="M22.667 4.667c0-0.177-0.070-0.346-0.195-0.471s-0.295-0.195-0.471-0.195h-3.333c-1.678-0.084-3.322 0.501-4.571 1.625s-2.003 2.697-2.096 4.375v3.6h-3.333c-0.177 0-0.346 0.070-0.471 0.195s-0.195 0.295-0.195 0.471v3.467c0 0.177 0.070 0.346 0.195 0.471s0.295 0.195 0.471 0.195h3.333v8.933c0 0.177 0.070 0.346 0.195 0.471s0.295 0.195 0.471 0.195h4c0.177 0 0.346-0.070 0.471-0.195s0.195-0.295 0.195-0.471v-8.933h3.493c0.148 0.002 0.293-0.045 0.411-0.135s0.204-0.216 0.242-0.359l0.96-3.467c0.026-0.098 0.030-0.202 0.010-0.302s-0.062-0.194-0.124-0.275c-0.062-0.081-0.142-0.147-0.233-0.193s-0.192-0.070-0.294-0.070h-4.467v-3.6c0.033-0.33 0.188-0.636 0.435-0.858s0.567-0.344 0.899-0.342h3.333c0.177 0 0.346-0.070 0.471-0.195s0.195-0.295 0.195-0.471v-3.467z"></path>
</symbol>
<symbol id="icon-person" viewBox="0 0 32 32">
<path d="M16 15.467c1.055 0 2.086-0.313 2.963-0.899s1.561-1.419 1.964-2.394 0.509-2.047 0.304-3.081c-0.206-1.035-0.714-1.985-1.46-2.731s-1.696-1.254-2.731-1.46-2.107-0.1-3.082 0.303c-0.975 0.404-1.807 1.087-2.393 1.964s-0.899 1.908-0.899 2.963c0 1.414 0.562 2.771 1.562 3.771s2.357 1.562 3.771 1.562z"></path>
<path d="M24 28.8c0.354 0 0.693-0.14 0.943-0.39s0.39-0.589 0.39-0.943c0-2.475-0.983-4.849-2.734-6.6s-4.124-2.734-6.6-2.734-4.849 0.983-6.6 2.734c-1.75 1.75-2.734 4.124-2.734 6.6 0 0.354 0.14 0.693 0.391 0.943s0.589 0.39 0.943 0.39h16z"></path>
</symbol>
</defs>
</svg>
